<svg id="svg-defs" version="1.1" xmlns="http://www.w3.org/2000/svg" xmlns:xlink="http://www.w3.org/1999/xlink">
	<defs>
		<symbol id="icon-arrow-left" viewBox="0 0 32 32">
			<polygon points="21.9,31.8 27.4,26.3 17,15.9 27.4,5.5 21.9,0 6,15.9"/>
		</symbol>
		<symbol id="icon-arrow-right" viewBox="0 0 32 32">
			<polygon points="12.5,0 7,5.5 17.4,15.9 7,26.3 12.5,31.8 28.4,15.9"/>
		</symbol>
		<symbol id="icon-calendar" viewBox="0 0 24 24">
			<path d="M18.984 20.016v-11.016h-13.969v11.016h13.969zM18.984 3.984c1.078 0 2.016 0.938 2.016 2.016v14.016c0 1.078-0.938 1.969-2.016 1.969h-13.969c-1.125 0-2.016-0.891-2.016-1.969v-14.016c0-1.078 0.891-2.016 2.016-2.016h0.984v-1.969h2.016v1.969h7.969v-1.969h2.016v1.969h0.984zM17.016 11.016v1.969h-2.016v-1.969h2.016zM12.984 11.016v1.969h-1.969v-1.969h1.969zM9 11.016v1.969h-2.016v-1.969h2.016z"></path>
		</symbol>
		<symbol id="icon-play-circle-filled" viewBox="0 0 24 24">
			<path d="M9.984 16.5l6-4.5-6-4.5v9zM12 2.016c5.531 0 9.984 4.453 9.984 9.984s-4.453 9.984-9.984 9.984-9.984-4.453-9.984-9.984 4.453-9.984 9.984-9.984z"></path>
		</symbol>
		<symbol id="icon-play-circle-outline" viewBox="0 0 24 24">
			<path d="M12 20.016c4.406 0 8.016-3.609 8.016-8.016s-3.609-8.016-8.016-8.016-8.016 3.609-8.016 8.016 3.609 8.016 8.016 8.016zM12 2.016c5.531 0 9.984 4.453 9.984 9.984s-4.453 9.984-9.984 9.984-9.984-4.453-9.984-9.984 4.453-9.984 9.984-9.984zM9.984 16.5v-9l6 4.5z"></path>
		</symbol>
	</defs>
</svg>
